<svg width="1416" height="1116" viewBox="0 0 1416 1116" fill="none" xmlns="http://www.w3.org/2000/svg">
<path d="M819.471 799.043C817.872 794.275 813.291 791.952 809.135 793.664L783.562 804.667L730.18 640.597C734.655 625.192 754.047 557.339 756.498 519.561C759.162 474.936 747.548 388.744 747.015 385.199C746.375 380.186 742.22 376.763 737.851 377.496C735.401 377.985 677.01 388.377 648.454 399.014C638.544 401.948 625.865 407.083 613.291 412.585C607.964 410.017 591.128 401.948 581.539 399.258C548.934 389.967 483.51 388.377 480.74 388.377C477.117 388.255 473.921 391.067 472.855 394.979C472.003 398.28 452.397 477.626 455.167 519.805C457.618 562.107 483.084 635.584 488.731 651.6L459.323 754.419L426.718 740.604C422.562 738.892 417.981 741.215 416.489 745.983C414.997 750.751 417.022 756.008 421.177 757.72L498.747 790.73C499.706 791.097 500.559 791.341 501.518 791.341C504.714 791.341 507.804 789.018 508.976 785.35C510.468 780.582 508.444 775.325 504.288 773.614L474.347 760.899L503.968 657.59C518.033 649.155 575.678 614.067 601.251 586.436L601.357 586.314C606.792 580.201 612.972 569.687 617.021 562.473C620.643 567.364 624.16 571.887 627.569 575.677C649.839 603.674 702.582 638.885 715.156 647.198L768.538 811.392L743.392 822.15C739.236 823.984 737.212 829.241 738.704 834.009C739.876 837.677 742.966 840 746.162 840C747.121 840 748.08 839.755 748.933 839.389L814.569 811.147C818.938 809.069 821.069 803.812 819.471 799.043ZM590.383 572.988C568.752 596.339 520.378 626.781 501.518 638.274C493.526 615.045 473.388 553.549 471.257 518.46C469.126 486.306 482.125 426.889 486.707 406.838C503.862 407.45 552.45 409.895 577.809 416.986C581.539 418.086 586.76 420.165 591.768 422.365C573.547 430.923 559.056 438.381 557.884 438.992C555.86 440.093 554.261 442.049 553.622 444.494C552.876 446.939 553.089 449.629 554.155 451.83C555.54 454.641 580.686 507.213 606.579 546.947C603.169 553.549 595.817 566.875 590.383 572.988ZM639.397 562.962C639.29 562.84 639.184 562.718 639.077 562.596C615.103 535.332 583.776 474.447 572.482 451.707C589.53 443.149 629.7 423.588 652.822 416.741C653.035 416.741 653.142 416.619 653.355 416.619C674.559 408.55 715.262 400.359 732.417 397.18C735.401 420.654 742.646 483.984 740.515 518.338C738.491 549.147 723.68 604.164 717.18 627.148C699.279 615.045 657.298 585.58 639.397 562.962Z" fill="#00FFFF" stroke="#00FFFF" stroke-width="22"/>
<path d="M614.783 345.587C619.152 345.587 622.775 341.43 622.775 336.418V286.169C622.775 281.157 619.152 277 614.783 277C610.414 277 606.792 281.157 606.792 286.169V336.418C606.792 341.43 610.414 345.587 614.783 345.587Z" fill="#00FFFF" stroke="#00FFFF" stroke-width="22"/>
<path d="M564.171 341.919C565.769 344.364 568.113 345.587 570.564 345.587C572.269 345.587 573.973 344.976 575.359 343.753C578.875 340.697 579.621 334.951 576.957 330.916L550.212 289.837C547.548 285.803 542.54 284.947 539.024 288.003C535.508 291.06 534.762 296.806 537.426 300.84L564.171 341.919Z" fill="#00FFFF" stroke="#00FFFF" stroke-width="22"/>
<path d="M655.486 343.753C656.978 344.976 658.576 345.587 660.281 345.587C662.732 345.587 665.076 344.242 666.674 341.919L693.419 300.84C696.083 296.806 695.337 291.06 691.821 288.003C688.304 284.947 683.296 285.803 680.633 289.837L653.888 330.916C651.224 334.951 651.97 340.697 655.486 343.753Z" fill="#00FFFF" stroke="#00FFFF" stroke-width="22"/>
<path d="M492.454 233.014C548.313 131.671 576.241 81 618 81C659.758 81 687.686 131.671 743.543 233.014L757.995 259.232C773.871 288.03 781.804 302.43 794.183 311.931C806.558 321.431 821.966 324.958 852.792 332.011L880.857 338.433C989.326 363.254 1043.56 375.665 1056.47 417.629C1069.37 459.592 1032.4 503.322 958.447 590.774L939.316 613.4C918.303 638.251 907.793 650.677 903.066 666.05C898.343 681.424 899.93 698.002 903.106 731.162L905.999 761.347C917.178 878.03 922.77 936.371 888.989 962.306C855.204 988.241 804.423 964.594 702.861 917.305L676.586 905.066C647.727 891.628 633.298 884.907 618 884.907C602.701 884.907 588.272 891.628 559.413 905.066L533.138 917.305C431.575 964.594 380.794 988.241 347.012 962.306C313.23 936.371 318.82 878.03 330 761.347L332.893 731.162C336.07 698.002 337.658 681.424 332.931 666.05C328.205 650.677 317.698 638.251 296.684 613.4L277.552 590.774C203.603 503.322 166.629 459.592 179.532 417.629C192.436 375.665 246.672 363.254 355.144 338.433L383.207 332.011C414.031 324.958 429.443 321.431 441.818 311.931C454.192 302.43 462.13 288.031 478.003 259.232L492.454 233.014Z" stroke="#00FFFF" stroke-width="61"/>
</svg>
